# xmcd CD database file
#
# Track frame offsets:
#	150
#	12545
#	26213
#	37727
#	49303
#	63483
#	74858
#	86987
#	100682
#	113688
#	127143
#	141827
#	154495
#	165090
#
# Disc length: 2419 seconds
#
# Revision: 0
# Processed by: cddbd v1.5.2PL0 Copyright (c) Steve Scherf et al.
# Submitted via: CDex 1.70beta2
#
DISCID=c909710e
DTITLE=B.B. King - Anthology [CD3]
DYEAR=2007
DGENRE=Blues
TTITLE0=Please Hurry Home
TTITLE1=Ruby Lee
TTITLE2=Shake It Up And Go
TTITLE3=She's A Mean Woman
TTITLE4=She Don't Move Me No More
TTITLE5=She's Dynamite
TTITLE6=Shut Your Mouth
TTITLE7=Sneakin' Around
TTITLE8=Someday, Somewhere
TTITLE9=Story From My Heart And Soul
TTITLE10=Sweet Little Angel
TTITLE11=Ten Long Years
TTITLE12=That Ain't The Way To Do It
TTITLE13=The Other Night Blues
EXTD=YEAR: 2007
EXTT0=
EXTT1=
EXTT2=
EXTT3=
EXTT4=
EXTT5=
EXTT6=
EXTT7=
EXTT8=
EXTT9=
EXTT10=
EXTT11=
EXTT12=
EXTT13=
PLAYORDER=
